<svg width="48" height="48" viewBox="0 0 48 48" fill="none" xmlns="http://www.w3.org/2000/svg">
<path d="M31.18 28.74C31.5965 30.5022 31.6087 32.3357 31.2159 34.1033C30.8231 35.8708 30.0354 37.5266 28.9118 38.9465C27.7882 40.3664 26.3579 41.5136 24.7279 42.3022C23.098 43.0908 21.3107 43.5003 19.5 43.5V33.9M31.18 28.74C34.9998 25.9576 38.1071 22.311 40.2483 18.0982C42.3895 13.8853 43.5037 9.22574 43.5 4.50001C38.7746 4.4966 34.1154 5.61098 29.903 7.75214C25.6905 9.8933 22.0442 13.0005 19.262 16.82M31.18 28.74C27.7038 31.2826 23.7206 33.0428 19.5 33.9M19.5 33.9C19.2931 33.9421 19.0857 33.9821 18.878 34.02C17.0636 32.5812 15.4208 30.9384 13.982 29.124C14.0198 28.9156 14.0578 28.7076 14.1 28.5M19.262 16.82C17.4997 16.4032 15.666 16.3906 13.8981 16.7833C12.1303 17.1759 10.4743 17.9636 9.05414 19.0872C7.63401 20.2109 6.4866 21.6414 5.6979 23.2715C4.9092 24.9016 4.49967 26.6891 4.5 28.5H14.1M19.262 16.82C16.7198 20.2956 14.9575 24.2801 14.1 28.5M9.622 33.28C8.30636 34.2583 7.28345 35.578 6.66405 37.096C6.04465 38.614 5.85235 40.2725 6.108 41.892C7.72765 42.1474 9.38633 41.9548 10.9044 41.3351C12.4224 40.7153 13.7419 39.692 14.72 38.376M33 18C33 18.7957 32.6839 19.5587 32.1213 20.1213C31.5587 20.6839 30.7956 21 30 21C29.2044 21 28.4413 20.6839 27.8787 20.1213C27.3161 19.5587 27 18.7957 27 18C27 17.2044 27.3161 16.4413 27.8787 15.8787C28.4413 15.3161 29.2044 15 30 15C30.7956 15 31.5587 15.3161 32.1213 15.8787C32.6839 16.4413 33 17.2044 33 18Z" stroke="black" stroke-width="2" stroke-linecap="round" stroke-linejoin="round"/>
</svg>
