<svg width="48" height="48" viewBox="0 0 48 48" fill="none" xmlns="http://www.w3.org/2000/svg">
<path d="M41.962 27.4V33.974C41.962 35.5637 41.3305 37.0883 40.2064 38.2124C39.0823 39.3365 37.5577 39.968 35.968 39.968H11.996C11.2085 39.9683 10.4287 39.8133 9.70112 39.5121C8.97353 39.2109 8.31243 38.7692 7.7556 38.2124C7.19877 37.6556 6.75712 36.9945 6.45588 36.2669C6.15465 35.5393 5.99974 34.7595 6 33.972V13.992C6.00053 12.4026 6.63227 10.8786 7.75631 9.7549C8.88034 8.63123 10.4046 8 11.994 8H21.984M32.484 12.118L37.958 17.632" stroke="black" stroke-width="2" stroke-linecap="round" stroke-linejoin="round"/>
<path d="M23.9799 30.716L21.0019 31.296C20.6803 31.3774 20.3435 31.3774 20.0219 31.296C19.7085 31.1933 19.4217 31.0225 19.1819 30.796C18.9519 30.5671 18.781 30.2857 18.6839 29.976C18.5946 29.6561 18.5946 29.3179 18.6839 28.998L19.2439 25.982C19.4139 25.222 19.8039 24.526 20.3639 23.982L35.0879 9.258C35.4528 8.87529 35.8954 8.57522 36.3859 8.378C36.8799 8.146 37.4179 8.018 37.9659 8C38.4939 8.004 39.0159 8.112 39.5019 8.32C39.9959 8.52 40.4439 8.82 40.8219 9.2C41.198 9.57036 41.4971 10.0115 41.7019 10.498C42.0999 11.4916 42.0999 12.6004 41.7019 13.594C41.4975 14.0813 41.1983 14.5231 40.8219 14.894L25.9759 29.598C25.4359 30.158 24.7399 30.546 23.9779 30.718L23.9799 30.716Z" stroke="black" stroke-width="2" stroke-linecap="round" stroke-linejoin="round"/>
</svg>
