<svg width="48" height="48" viewBox="0 0 48 48" fill="none" xmlns="http://www.w3.org/2000/svg">
<path d="M40.03 32.228L25.952 41.384C25.3332 41.7861 24.611 42.0001 23.873 42.0001C23.135 42.0001 22.4129 41.7861 21.794 41.384L7.71604 32.228C7.18614 31.8788 6.75171 31.4029 6.45208 30.8434C6.15245 30.284 5.99709 29.6586 6.00004 29.024V9.814C6.00004 8.80246 6.40187 7.83236 7.11714 7.11709C7.8324 6.40183 8.80251 6 9.81404 6H37.932C38.9434 6.00053 39.9132 6.40253 40.6284 7.11768C41.3435 7.83283 41.7455 8.80263 41.746 9.814V29.024C41.749 29.6586 41.5936 30.284 41.294 30.8434C40.9944 31.4029 40.5599 31.8788 40.03 32.228Z" stroke="black" stroke-width="2" stroke-linecap="round" stroke-linejoin="round"/>
<path d="M23.878 10.6602L26.662 17.8522L34.37 18.2722L28.38 23.1542L30.364 30.6142L23.878 26.4142L17.392 30.6142L19.396 23.1542L13.386 18.2702L21.112 17.8502L23.878 10.6602Z" stroke="black" stroke-width="2" stroke-linecap="round" stroke-linejoin="round"/>
</svg>
